<?xml version="1.0" encoding="UTF-8" standalone="no"?>
<!-- Created with Inkscape (http://www.inkscape.org/) -->

<svg
   xmlns:dc="http://purl.org/dc/elements/1.1/"
   xmlns:cc="http://creativecommons.org/ns#"
   xmlns:rdf="http://www.w3.org/1999/02/22-rdf-syntax-ns#"
   xmlns:svg="http://www.w3.org/2000/svg"
   xmlns="http://www.w3.org/2000/svg"
   xmlns:sodipodi="http://sodipodi.sourceforge.net/DTD/sodipodi-0.dtd"
   xmlns:inkscape="http://www.inkscape.org/namespaces/inkscape"
   width="317.93457"
   height="65.35424"
   id="svg3084"
   version="1.1"
   inkscape:version="0.48.4 r9939"
   sodipodi:docname="New document 5">
  <defs
     id="defs3086" />
  <sodipodi:namedview
     id="base"
     pagecolor="#ffffff"
     bordercolor="#5F7A87"
     borderopacity="1.0"
     inkscape:pageopacity="0.0"
     inkscape:pageshadow="2"
     inkscape:zoom="1.979899"
     inkscape:cx="158.96729"
     inkscape:cy="32.676819"
     inkscape:document-units="px"
     inkscape:current-layer="layer1"
     showgrid="false"
     fit-margin-top="0"
     fit-margin-left="0"
     fit-margin-right="0"
     fit-margin-bottom="0"
     inkscape:window-width="1187"
     inkscape:window-height="746"
     inkscape:window-x="1650"
     inkscape:window-y="50"
     inkscape:window-maximized="0" />
  <metadata
     id="metadata3089">
    <rdf:RDF>
      <cc:Work
         rdf:about="">
        <dc:format>image/svg+xml</dc:format>
        <dc:type
           rdf:resource="http://purl.org/dc/dcmitype/StillImage" />
        <dc:title></dc:title>
      </cc:Work>
    </rdf:RDF>
  </metadata>
  <g
     inkscape:label="Layer 1"
     inkscape:groupmode="layer"
     id="layer1"
     transform="translate(-216.03271,-499.68476)">
    <text
       xml:space="preserve"
       style="font-size:40px;font-style:normal;font-variant:normal;font-weight:normal;font-stretch:normal;line-height:125%;letter-spacing:0px;word-spacing:0px;fill:#5F7A87;fill-opacity:1;stroke:none;font-family:'Assassin$';-inkscape-font-specification:Constantine"
       x="215.59326"
       y="564.43842"
       id="text2985-1"
       sodipodi:linespacing="125%"><tspan
         sodipodi:role="line"
         id="tspan2987-7"
         x="215.59326"
         y="564.43842"
         style="font-style:normal;font-variant:normal;font-weight:normal;font-stretch:normal;font-family:Constantine;-inkscape-font-specification:Constantine">Mash Academy</tspan></text>
    <g
       id="Layer_3"
       transform="matrix(0.09516961,0,0,0.09516961,341.54803,499.85229)">
      <path
         d="m 176.18,215.03 c 0,0 36.925,-135.74 149.32,-136.57 112.395,-0.83 159.17,42.624 164.55,153.48 -104.22,-41.083 -187.46,15.797 -218.16,43.969 -31.64,-40.63 -33.99,-59.43 -95.71,-60.88 z"
         id="path5"
         inkscape:connector-curvature="0" />
    </g>
    <path
       d="m 394.10572,514.01151 c 0,-1.21923 -1.74208,-2.97815 -2.60022,-2.6048"
       id="path10"
       inkscape:connector-curvature="0"
       style="fill:none;stroke:#5F7A87;stroke-width:0.57101768" />
    <circle
       transform="matrix(0.09516961,0,0,0.09516961,341.54803,499.85229)"
       cy="150.34"
       cx="552.66998"
       r="5.579"
       id="circle12"
       sodipodi:cx="552.66998"
       sodipodi:cy="150.34"
       sodipodi:rx="5.579"
       sodipodi:ry="5.579"
       d="m 558.24898,150.34 c 0,3.08119 -2.4978,5.579 -5.579,5.579 -3.08119,0 -5.579,-2.49781 -5.579,-5.579 0,-3.0812 2.49781,-5.579 5.579,-5.579 3.0812,0 5.579,2.4978 5.579,5.579 z" />
    <circle
       transform="matrix(0.09516961,0,0,0.09516961,341.54803,499.85229)"
       cy="156.88"
       cx="552.78003"
       r="8.0950003"
       id="circle14"
       sodipodi:cx="552.78003"
       sodipodi:cy="156.88"
       sodipodi:rx="8.0950003"
       sodipodi:ry="8.0950003"
       d="m 560.87503,156.88 c 0,4.47075 -3.62426,8.09501 -8.095,8.09501 -4.47075,0 -8.095,-3.62426 -8.095,-8.09501 0,-4.47074 3.62425,-8.095 8.095,-8.095 4.47074,0 8.095,3.62426 8.095,8.095 z" />
    <circle
       transform="matrix(0.09516961,0,0,0.09516961,341.54803,499.85229)"
       cy="164.00999"
       cx="552.78003"
       r="8.0950003"
       id="circle16"
       sodipodi:cx="552.78003"
       sodipodi:cy="164.00999"
       sodipodi:rx="8.0950003"
       sodipodi:ry="8.0950003"
       d="m 560.87503,164.00999 c 0,4.47075 -3.62426,8.095 -8.095,8.095 -4.47075,0 -8.095,-3.62425 -8.095,-8.095 0,-4.47074 3.62425,-8.095 8.095,-8.095 4.47074,0 8.095,3.62426 8.095,8.095 z" />
    <path
       d="m 395.96316,518.6283 c -0.0701,-0.0953 -0.15208,-0.1734 -0.17179,-0.25429 -0.15398,-0.63088 -0.6224,-2.55065 -1.26623,-2.72528 -0.0871,-0.0236 -0.14056,-0.12191 -0.11953,-0.21965 0.0211,-0.0977 0.10888,-0.15741 0.19577,-0.13409 0.73128,0.19823 1.17001,1.61921 1.50273,2.9829 0.0237,0.097 -0.002,0.21594 -0.0378,0.33166 -0.005,0.0159 -0.0282,0.11383 -0.0422,0.11383 l -0.0609,-0.0942 z"
       id="path18"
       inkscape:connector-curvature="0" />
    <path
       d="m 395.55869,518.89097 c -0.0701,-0.0953 -0.15209,-0.1734 -0.17178,-0.2543 -0.15399,-0.63087 -0.62241,-2.55064 -1.26624,-2.72527 -0.0871,-0.0236 -0.14056,-0.12191 -0.11953,-0.21965 0.0211,-0.0977 0.10888,-0.15741 0.19576,-0.1341 0.73129,0.19824 1.17002,1.61922 1.50273,2.98291 0.0237,0.097 -0.002,0.21593 -0.0378,0.33166 -0.005,0.0159 -0.0282,0.11383 -0.0422,0.11383 l -0.0619,-0.0942 z"
       id="path20"
       inkscape:connector-curvature="0" />
    <path
       d="m 394.57082,519.01945 c 0.0143,-0.11734 0.0473,-0.22565 0.0249,-0.30588 -0.17558,-0.62526 -0.70958,-2.5278 -0.2343,-2.99584 0.0641,-0.0634 0.0624,-0.17521 -0.004,-0.25011 -0.0663,-0.0747 -0.17216,-0.0837 -0.2365,-0.0207 -0.5398,0.53171 -0.2246,1.98486 0.15475,3.33655 0.0269,0.096 0.10839,0.18673 0.19567,0.27038 0.0121,0.0115 0.0804,0.0854 0.0928,0.0784 l 0.005,-0.1123 z"
       id="path22"
       inkscape:connector-curvature="0" />
    <path
       d="m 393.96745,518.97186 c 0.0143,-0.11734 0.0473,-0.22565 0.0249,-0.30587 -0.17559,-0.62526 -0.70959,-2.5278 -0.2343,-2.99585 0.0641,-0.0634 0.0624,-0.1752 -0.004,-0.2501 -0.0663,-0.0747 -0.17217,-0.0838 -0.2365,-0.0208 -0.53981,0.53172 -0.2246,1.98486 0.15474,3.33656 0.027,0.096 0.1084,0.18672 0.19567,0.27037 0.0121,0.0115 0.0804,0.0854 0.0928,0.0784 l 0.005,-0.1123 z"
       id="path24"
       inkscape:connector-curvature="0" />
    <path
       d="m 395.17039,518.84624 c 0.0195,-0.14542 0.0645,-0.27961 0.0339,-0.37897 -0.23945,-0.77477 -0.96778,-3.13203 -0.31948,-3.71199 0.0875,-0.0785 0.0853,-0.21699 -0.005,-0.30987 -0.0905,-0.0926 -0.23478,-0.10374 -0.32263,-0.0257 -0.73623,0.65876 -0.30644,2.45937 0.21109,4.13407 0.0368,0.11897 0.1478,0.23136 0.26685,0.335 0.0165,0.0143 0.10954,0.10583 0.12648,0.0972 l 0.009,-0.1399 z"
       id="path26"
       inkscape:connector-curvature="0" />
    <path
       d="m 403.7219,506.29074 c 0.88177,0.18772 1.26337,1.02711 -0.0604,1.48942 -6.19442,2.16331 -31.55265,9.54614 -31.55265,9.54614 -0.59676,0.18052 -1.45236,0.24155 -2.39047,-0.009 0,0 -26.45128,-7.60733 -27.43961,-8.104 -0.40439,-0.20322 -0.49235,-0.91677 0.094,-1.12914 0.65753,-0.23816 28.08537,-7.73948 28.85788,-7.98437 0.93276,-0.2957 1.55421,-0.27535 2.53712,-0.0748 0,0 23.66841,4.92802 29.95419,6.26619 z"
       id="path8"
       style="stroke:#ffffff;stroke-width:0.38067847;stroke-miterlimit:4;stroke-opacity:1;stroke-dasharray:none"
       inkscape:connector-curvature="0"
       sodipodi:nodetypes="sssssssss" />
  </g>
</svg>
